<svg width="32" height="35" viewBox="0 0 32 35" fill="none" xmlns="http://www.w3.org/2000/svg">
<path d="M25.0045 7.61905C19.7668 13.4222 18.2242 15.2578 18.4574 15.3565C18.6188 15.4157 21.6681 15.4947 25.2556 15.4947C30.3677 15.5144 31.7847 15.475 31.8385 15.2776C31.8924 15.1394 31.9103 11.6457 31.8924 7.52036L31.8385 9.53674e-07L25.0045 7.61905Z" fill="#F4A261"/>
<path d="M0.0358744 7.71773L0.0896861 15.4157L6.86995 15.4355C10.583 15.4552 13.6682 15.4157 13.704 15.3368C13.7578 15.2578 10.6906 11.7839 6.88789 7.61904L0 0.0197306L0.0358744 7.71773Z" fill="#F4A261"/>
<path d="M0.125561 19.2055C0.0538117 19.2647 0 22.8177 0 27.0812V34.8187L0.502242 34.9371C1.20179 35.1147 14.0448 34.8779 14.2063 34.7002C14.296 34.6015 14.3318 31.0881 14.3139 26.8443L14.2601 19.1661L7.24664 19.1068C3.39013 19.0871 0.197309 19.1266 0.125561 19.2055Z" fill="#F4A261"/>
<path d="M17.9014 19.2053C17.5964 19.2842 17.5785 19.8172 17.5785 26.9822C17.5785 34.1275 17.5964 34.6802 17.9014 34.8184C18.2601 34.9763 31.6771 35.0158 31.8206 34.8381C31.8924 34.7789 31.9462 31.226 31.9641 26.9427L32 19.1658L25.0942 19.146C21.3094 19.1263 18.0628 19.146 17.9014 19.2053Z" fill="#F4A261"/>
</svg>
