<svg width="213" height="87" viewBox="0 0 213 87" fill="none" xmlns="http://www.w3.org/2000/svg">
<path d="M63.8131 18.8715C48.561 33.2451 44.069 37.7918 44.748 38.0363C45.2181 38.1829 54.0977 38.3785 64.5443 38.3785C79.4308 38.4274 83.5572 38.3296 83.7139 37.8407C83.8706 37.4985 83.9228 28.845 83.8706 18.627L83.7139 -8.50247e-06L63.8131 18.8715Z" fill="#FB0002"/>
<path d="M-8.89553 19.1159L-8.73883 38.1829L11.0053 38.2318C21.8175 38.2807 30.8016 38.1829 30.9061 37.9874C31.0628 37.7918 22.1309 29.1872 11.0575 18.8715L-9 0.0488918L-8.89553 19.1159Z" fill="#FB0002"/>
<path d="M176.217 6.44745C170.732 7.76747 167.703 13.3898 169.896 18.2788C170.941 20.6255 172.038 21.75 174.441 22.8744C178.619 24.8789 184.156 23.51 186.768 19.8921L188.021 18.181L185.827 18.0343C184.156 17.8877 183.372 18.1321 182.119 19.1099C177.105 23.07 170.837 17.1054 174.336 11.7275C176.06 9.0875 180.291 8.74527 182.955 11.092C184.26 12.2653 187.394 12.4609 187.394 11.3853C187.394 10.5053 184.992 7.81636 183.529 7.08302C181.597 6.10522 178.776 5.86077 176.217 6.44745Z" fill="#FE0002"/>
<path d="M200.714 6.203C198.416 6.6919 197.11 7.42524 195.334 9.33194C192.566 12.2653 192.409 17.0565 194.968 20.1366C200.505 26.9812 211.944 23.4122 211.944 14.8565C211.944 12.2164 211.422 10.9942 209.385 8.98972C207.034 6.59412 203.796 5.51854 200.714 6.203ZM205.154 10.3586C208.601 12.0209 209.071 16.0787 206.146 18.7188C201.863 22.5811 194.812 17.5943 197.528 12.6076C199.043 9.91862 202.281 8.94083 205.154 10.3586Z" fill="#FE0002"/>
<path d="M108 15.0032V23.9011L113.014 23.7055C117.924 23.5589 118.029 23.51 119.544 21.9455C121.633 19.7455 121.581 17.8388 119.335 15.7365C117.715 14.2209 117.663 14.0254 118.394 13.292C119.648 12.1187 119.439 8.89193 118.029 7.57191C117.036 6.59411 116.201 6.39855 112.44 6.25188L108 6.10521V15.0032ZM114.999 9.91862C116.096 10.8964 116.044 11.3853 114.738 12.6076C113.067 14.172 111.97 13.6342 111.761 11.1898C111.604 9.28305 111.709 9.13638 112.91 9.13638C113.589 9.13638 114.581 9.47861 114.999 9.91862ZM116.253 17.0565C117.193 17.9365 116.984 19.7944 115.887 20.381C115.313 20.6255 114.164 20.8699 113.276 20.8699C111.709 20.8699 111.656 20.821 111.656 18.6699V16.4699H113.641C114.738 16.4699 115.887 16.7143 116.253 17.0565Z" fill="#FE0002"/>
<path d="M132.132 7.03412C131.662 7.81635 126.334 19.8921 125.185 22.7277C124.715 23.8033 124.819 23.8522 126.909 23.7055C128.841 23.5589 129.102 23.4122 129.677 21.8477L130.304 20.1366L134.012 19.9899L137.721 19.8432L138.348 21.8477C138.922 23.7055 139.079 23.8033 141.012 23.8033C142.108 23.8033 142.996 23.6078 142.996 23.4122C142.996 23.2166 141.377 19.3055 139.445 14.7587C135.945 6.643 135.841 6.44744 134.274 6.30077C133.072 6.20299 132.498 6.39855 132.132 7.03412ZM135.37 13.8787C135.841 15.1498 136.206 16.3232 136.206 16.5676C136.206 16.7632 135.161 16.9587 133.908 16.9587H131.557L132.654 14.0254C133.229 12.412 133.908 11.1898 134.117 11.3364C134.326 11.4831 134.9 12.6076 135.37 13.8787Z" fill="#FE0002"/>
<path d="M148.742 15.0032V23.8033H150.57H152.399V18.2788C152.451 11.9231 152.346 11.8742 156.629 19.2566C159.241 23.8033 159.241 23.8033 161.33 23.8033H163.367V15.0032V6.20299H161.278H159.241L159.084 11.6298L158.928 17.0076L155.794 11.6298C152.66 6.25188 152.66 6.20299 150.727 6.20299H148.742V15.0032Z" fill="#FE0002"/>
<path d="M201.961 35.2209C199.506 35.9543 197.834 37.861 197.834 40.1588C197.834 42.75 199.192 43.8744 204.207 45.4389C207.393 46.4167 208.333 46.9545 208.437 47.7367C208.646 49.1057 207.393 49.9857 205.147 49.9857C203.214 49.9857 201.229 48.7634 201.229 47.5901C201.229 47.1501 200.55 46.9545 199.088 46.9545C197.051 46.9545 196.946 47.0034 197.26 48.2256C197.782 50.0346 199.192 51.6968 200.707 52.2835C206.035 54.2391 211.728 52.4791 212.512 48.6168C213.191 45.2922 211.415 43.5811 205.878 42.1633C204.102 41.7233 202.378 40.9899 202.117 40.501C201.229 39.2299 202.587 38.1543 204.938 38.1543C206.505 38.1543 207.132 38.3988 207.811 39.3766C208.646 40.5499 211.258 41.1366 211.885 40.2077C212.355 39.4744 210.631 36.7365 209.221 36.0521C207.184 35.0743 203.893 34.732 201.961 35.2209Z" fill="#FE0002"/>
<path d="M115.671 43.63C114.731 48.2745 114 52.2346 114 52.4302C114 52.6746 114.94 52.8213 116.037 52.8213H118.074L118.649 49.7412C118.962 48.079 119.328 45.7323 119.537 44.51C120.268 39.7677 120.634 40.3055 123.297 49.6434L124.185 52.8213H126.118H128.051L129.148 49.2523C129.774 47.3456 130.506 44.95 130.767 44.0211C131.655 41.2344 131.759 40.9411 132.02 41.1366C132.125 41.2344 132.595 43.4344 133.013 45.9767C134.319 53.3102 134.11 52.8213 136.46 52.8213C137.818 52.8213 138.55 52.6257 138.497 52.1857C138.497 51.8924 137.714 47.9812 136.774 43.5322L135.102 35.4654L132.699 35.3187L130.297 35.1721L128.991 39.2299C128.26 41.4788 127.372 44.2167 127.006 45.39C126.223 47.9323 126.118 47.7856 123.924 40.6966L122.201 35.2209H119.746H117.343L115.671 43.63Z" fill="#FE0002"/>
<path d="M143.772 43.9722V52.8213H145.548C146.541 52.8213 147.377 52.5279 147.481 52.1857C147.585 51.8924 147.69 47.9812 147.69 43.5322V35.4654L145.757 35.3187L143.772 35.1721V43.9722Z" fill="#FE0002"/>
<path d="M154.219 44.0211V52.8213H156.309H158.346L158.502 47.3945L158.659 42.0166L161.793 47.3945C164.927 52.7724 164.927 52.8213 166.912 52.8213H168.844V44.0211V35.2209H167.016H165.188V40.3544C165.188 43.19 164.979 45.4878 164.77 45.4878C164.509 45.4878 162.994 43.19 161.323 40.3544L158.346 35.2209H156.256H154.219V44.0211Z" fill="#FE0002"/>
<path d="M178.56 42.4078C176.836 46.4167 175.113 50.3768 174.747 51.2568L174.016 52.8702L176.209 52.7235C178.194 52.5768 178.455 52.4302 179.03 50.8657C179.657 49.1545 179.709 49.1545 182.895 49.0079C186.552 48.8612 187.44 49.2523 187.91 51.4035C188.223 52.6746 188.484 52.8213 190.312 52.8213C191.618 52.8213 192.349 52.5768 192.349 52.1857C192.297 51.8924 190.73 47.9812 188.745 43.5322L185.194 35.4654L183.418 35.3187L181.642 35.221L178.56 42.4078ZM184.723 42.8966C185.194 44.1678 185.559 45.3411 185.559 45.5856C185.559 45.7811 184.514 45.9767 183.261 45.9767H180.91L182.007 43.0433C182.582 41.43 183.261 40.2077 183.47 40.3544C183.679 40.501 184.253 41.6255 184.723 42.8966Z" fill="#FE0002"/>
<path d="M-8.63437 47.5698C-8.8433 47.7164 -9 56.5166 -9 67.0768V86.2416L-7.53747 86.535C-5.50038 86.975 31.8985 86.3883 32.3686 85.9483C32.6298 85.7038 32.7342 77.0014 32.682 66.4901L32.5253 47.472L12.1022 47.3253C0.872055 47.2764 -8.42544 47.3742 -8.63437 47.5698Z" fill="#FB0002"/>
<path d="M43.1287 47.5698C42.2407 47.7653 42.1885 49.0854 42.1885 66.8324C42.1885 84.5305 42.2407 85.8994 43.1287 86.2416C44.1733 86.6327 83.2437 86.7305 83.6616 86.2905C83.8705 86.1438 84.0272 77.3437 84.0794 66.7346L84.1839 47.472L64.0741 47.4231C53.053 47.3742 43.5988 47.4231 43.1287 47.5698Z" fill="#FB0002"/>
<path d="M203.327 64.5834C203.066 64.6812 202.126 64.8768 201.343 65.0723C197.53 65.8546 195.963 70.4991 198.626 72.8458C199.358 73.4814 201.499 74.4103 203.327 74.8503C208.394 76.1703 209.7 78.2726 206.096 79.4459C204.163 80.0815 201.238 79.1037 200.716 77.5881C200.455 76.8059 199.932 76.5614 198.574 76.5614C197.007 76.5614 196.798 76.7081 196.798 77.8326C196.798 80.5704 201.813 83.2593 205.73 82.6238C210.274 81.8904 211.946 80.4237 211.946 77.0503C211.946 74.3614 210.379 73.0903 205.417 71.7213C201.969 70.7924 201.499 70.548 201.499 69.5213C201.499 67.3702 205.521 67.0279 207.349 68.9835C208.603 70.3524 210.745 70.5969 211.215 69.4724C211.58 68.5924 210.274 66.539 208.655 65.6101C207.506 64.9746 204.32 64.339 203.327 64.5834Z" fill="#FE0002"/>
<path d="M108.263 65.9523C102.413 69.0324 102.204 77.3437 107.793 80.9615C110.353 82.5749 114.845 82.8682 117.404 81.5482C120.016 80.2282 122.157 77.4903 122.471 75.1436L122.784 73.1391H118.24C113.8 73.1391 113.748 73.1391 113.748 74.3614C113.748 75.437 113.957 75.5836 115.785 75.5836C118.449 75.5836 118.867 76.2192 117.195 77.7837C115.263 79.5926 111.763 79.4948 109.465 77.5881C107.95 76.317 107.741 75.877 107.741 73.6769C107.741 71.5747 107.95 70.988 109.412 69.668C111.606 67.6146 114.688 67.5168 116.83 69.4235C117.822 70.3035 118.814 70.6947 120.172 70.6947C121.217 70.6947 122.105 70.4991 122.105 70.2058C122.105 69.4235 118.919 66.2946 117.352 65.5123C115.106 64.4368 110.718 64.6323 108.263 65.9523Z" fill="#FE0002"/>
<path d="M128.896 73.628V82.4282H134.119H139.342V80.7171V79.0059H135.895H132.5L132.656 77.1481L132.813 75.3392L136.104 75.1925L139.394 75.0459L139.238 73.4814C139.081 71.9169 139.081 71.9169 135.843 71.7702L132.552 71.6236V69.9613V68.2502H135.947H139.342V66.539V64.8279H134.119H128.896V73.628Z" fill="#FE0002"/>
<path d="M146.132 73.5792V82.4282H147.96H149.789V80.0815C149.789 76.2681 150.415 76.1214 152.714 79.4459C154.751 82.3793 154.751 82.4282 157.258 82.4282H159.765L157.101 79.1526L154.49 75.9259L156.057 74.997C159.086 73.2858 159.504 68.788 156.892 66.3435C155.639 65.219 155.064 65.0723 150.833 64.9257L146.132 64.7301V73.5792ZM154.072 68.5924C156.109 70.3035 154.437 73.3836 151.512 73.0414C150.154 72.8947 150.05 72.748 149.893 70.3035L149.789 67.7613H151.408C152.348 67.7613 153.549 68.1035 154.072 68.5924Z" fill="#FE0002"/>
<path d="M170.525 65.1701C170.003 66.0012 163.369 81.5971 163.369 81.9882C163.369 82.2327 164.205 82.4282 165.25 82.4282C166.921 82.4282 167.182 82.2327 167.913 80.4726L168.749 78.4681L172.405 78.6148L176.062 78.7615L176.689 80.4726C177.263 82.0371 177.524 82.1838 179.509 82.3304L181.703 82.4771L180.972 80.8637C180.606 79.9837 178.882 76.0237 177.159 72.0636C174.077 64.8768 174.077 64.8279 172.405 64.8279C171.518 64.8279 170.63 64.9746 170.525 65.1701ZM173.711 72.6503L174.808 75.5836H172.51C171.204 75.5836 170.159 75.437 170.159 75.2414C170.159 74.4592 171.935 69.7169 172.249 69.7169C172.405 69.7169 173.084 71.0369 173.711 72.6503Z" fill="#FE0002"/>
<path d="M186.875 73.628V82.4282H188.703H190.531V73.628V64.8279H188.703H186.875V73.628Z" fill="#FE0002"/>
</svg>
