<svg width="319" height="43" viewBox="0 0 319 43" fill="none" xmlns="http://www.w3.org/2000/svg">
<path d="M300 33.4793V41H301.36C302.12 41 302.76 40.7507 302.84 40.4599C302.92 40.2106 303 36.8865 303 33.1053V26.2493L301.52 26.1247L300 26V33.4793Z" fill="#C4CFD3"/>
<path d="M26.9197 9.36056C21.2809 16.4901 19.6201 18.7454 19.8712 18.8666C20.045 18.9394 23.3278 19.0364 27.19 19.0364C32.6937 19.0606 34.2193 19.0121 34.2772 18.7696C34.3351 18.5999 34.3544 14.3076 34.3351 9.23931L34.2772 1.10305e-05L26.9197 9.36056Z" fill="#F4A261"/>
<path d="M0.0386221 9.48183L0.0965552 18.9394L7.39613 18.9636C11.3935 18.9879 14.715 18.9394 14.7536 18.8424C14.8116 18.7454 11.5094 14.4774 7.41544 9.36058L0 0.0242804L0.0386221 9.48183Z" fill="#F4A261"/>
<path d="M0.135177 23.5954C0.0579331 23.6681 0 28.0332 0 33.2712V42.7772L0.540709 42.9227C1.29384 43.141 15.1205 42.85 15.2943 42.6317C15.3909 42.5105 15.4295 38.194 15.4102 32.9802L15.3523 23.5469L7.80166 23.4741C3.64979 23.4499 0.212421 23.4984 0.135177 23.5954Z" fill="#F4A261"/>
<path d="M19.2724 23.5951C18.9441 23.6921 18.9248 24.3468 18.9248 33.1496C18.9248 41.9282 18.9441 42.6072 19.2724 42.7769C19.6586 42.9709 34.1033 43.0194 34.2578 42.8012C34.335 42.7284 34.3929 38.3634 34.4123 33.1011L34.4509 23.5466L27.0161 23.5223C22.9415 23.4981 19.4462 23.5223 19.2724 23.5951Z" fill="#F4A261"/>
<path d="M104.23 26.2675C100.155 27.3882 97.9044 32.1618 99.5342 36.3127C100.31 38.3051 101.125 39.2598 102.91 40.2145C106.015 41.9163 110.128 40.7541 112.069 37.6824L113 36.2296L111.37 36.1051C110.128 35.9806 109.546 36.1881 108.615 37.0183C104.89 40.3805 100.233 35.3164 102.833 30.7505C104.113 28.509 107.257 28.2184 109.236 30.2108C110.206 31.2071 112.534 31.3731 112.534 30.4599C112.534 29.7127 110.749 27.4298 109.663 26.8071C108.227 25.9769 106.131 25.7694 104.23 26.2675Z" fill="#C4CFD3"/>
<path d="M124.635 26.1717C122.923 26.5853 121.951 27.2056 120.628 28.8184C118.566 31.2996 118.449 35.3523 120.356 37.9577C124.48 43.7472 133 40.7284 133 33.4914C133 31.2583 132.611 30.2244 131.094 28.5289C129.343 26.5026 126.931 25.5928 124.635 26.1717ZM127.942 29.6868C130.51 31.0929 130.86 34.5253 128.681 36.7584C125.491 40.0254 120.239 35.8072 122.262 31.5891C123.39 29.3146 125.802 28.4876 127.942 29.6868Z" fill="#C4CFD3"/>
<path d="M51 33.5V41L54.4539 40.8352C57.8358 40.7116 57.9078 40.6704 58.9511 39.3517C60.3902 37.4973 60.3543 35.8901 58.8072 34.1182C57.6919 32.8407 57.6559 32.6759 58.1596 32.0577C59.0231 31.0687 58.8792 28.3489 57.9078 27.2363C57.2242 26.4121 56.6485 26.2473 54.0581 26.1237L51 26V33.5ZM55.821 29.2143C56.5766 30.0385 56.5406 30.4506 55.6412 31.4808C54.4899 32.7995 53.7343 32.3462 53.5904 30.2857C53.4825 28.6786 53.5544 28.555 54.3819 28.555C54.8496 28.555 55.5332 28.8434 55.821 29.2143ZM56.6845 35.2308C57.3321 35.9726 57.1882 37.5385 56.4327 38.033C56.0369 38.239 55.2454 38.4451 54.6338 38.4451C53.5544 38.4451 53.5185 38.4039 53.5185 36.5907V34.7363H54.8856C55.6412 34.7363 56.4327 34.9423 56.6845 35.2308Z" fill="#C4CFD3"/>
<path d="M69.5692 26.648C69.2044 27.3175 65.0701 37.6526 64.1784 40.0795C63.8136 41 63.8947 41.0419 65.516 40.9163C67.0157 40.7908 67.2183 40.6653 67.6642 39.3263L68.1506 37.8618L71.0284 37.7363L73.9062 37.6108L74.3926 39.3263C74.8385 40.9163 74.9601 41 76.4598 41C77.3109 41 78 40.8327 78 40.6653C78 40.4979 76.7435 37.1505 75.2438 33.2592C72.5281 26.3133 72.447 26.1459 71.2311 26.0204C70.2988 25.9367 69.8529 26.1041 69.5692 26.648ZM72.0822 32.506C72.447 33.5939 72.7308 34.5981 72.7308 34.8073C72.7308 34.9747 71.9201 35.1421 70.9473 35.1421H69.1234L69.9745 32.6315C70.4204 31.2507 70.9473 30.2047 71.1095 30.3302C71.2716 30.4557 71.7174 31.4181 72.0822 32.506Z" fill="#C4CFD3"/>
<path d="M83 33.5V41H84.375H85.75V36.2917C85.7893 30.875 85.7107 30.8334 88.9321 37.125C90.8964 41 90.8964 41 92.4679 41H94V33.5V26H92.4286H90.8964L90.7786 30.625L90.6607 35.2084L88.3036 30.625C85.9464 26.0417 85.9464 26 84.4929 26H83V33.5Z" fill="#C4CFD3"/>
<path d="M214.737 26.1833C212.839 26.7914 211.547 28.3726 211.547 30.2782C211.547 32.427 212.597 33.3595 216.473 34.657C218.936 35.4678 219.663 35.9138 219.744 36.5625C219.906 37.6978 218.936 38.4275 217.2 38.4275C215.706 38.4275 214.172 37.4139 214.172 36.4409C214.172 36.076 213.647 35.9138 212.516 35.9138C210.941 35.9138 210.861 35.9544 211.103 36.968C211.507 38.4681 212.597 39.8466 213.768 40.3331C217.887 41.9549 222.288 40.4953 222.894 37.2923C223.419 34.5353 222.046 33.1163 217.765 31.9405C216.393 31.5756 215.06 30.9674 214.858 30.562C214.172 29.5079 215.222 28.6159 217.039 28.6159C218.25 28.6159 218.735 28.8186 219.26 29.6295C219.906 30.6026 221.925 31.0891 222.409 30.3187C222.772 29.7106 221.44 27.4401 220.35 26.8725C218.775 26.0616 216.231 25.7778 214.737 26.1833Z" fill="#C4CFD3"/>
<path d="M146.364 33.1856C145.597 37.1315 145 40.4959 145 40.662C145 40.8697 145.768 40.9943 146.663 40.9943H148.326L148.795 38.3776C149.051 36.9654 149.349 34.9717 149.52 33.9333C150.117 29.9044 150.415 30.3612 152.59 38.2945L153.315 40.9943H154.892H156.47L157.365 37.9622C157.877 36.3423 158.474 34.3071 158.687 33.5179C159.412 31.1504 159.497 30.9012 159.711 31.0673C159.796 31.1504 160.18 33.0195 160.521 35.1793C161.587 41.4096 161.416 40.9943 163.335 40.9943C164.444 40.9943 165.041 40.8281 164.998 40.4543C164.998 40.2051 164.358 36.8823 163.591 33.1026L162.226 26.2492L160.265 26.1246L158.303 26L157.237 29.4475C156.641 31.3581 155.916 33.6841 155.617 34.6809C154.978 36.8407 154.892 36.7161 153.101 30.6935L151.694 26.0416H149.69H147.729L146.364 33.1856Z" fill="#C4CFD3"/>
<path d="M168 33.4793V41H169.813C170.827 41 171.68 40.7507 171.787 40.4599C171.893 40.2106 172 36.8865 172 33.1053V26.2493L170.027 26.1247L168 26V33.4793Z" fill="#C4CFD3"/>
<path d="M168 33.4793V41H169.813C170.827 41 171.68 40.7507 171.787 40.4599C171.893 40.2106 172 36.8865 172 33.1053V26.2493L170.027 26.1247L168 26V33.4793Z" fill="#C4CFD3"/>
<path d="M177 33.5V41H178.571H180.104L180.221 36.375L180.339 31.7917L182.696 36.375C185.054 40.9584 185.054 41 186.546 41H188V33.5V26H186.625H185.25V30.375C185.25 32.7917 185.093 34.75 184.936 34.75C184.739 34.75 183.6 32.7917 182.343 30.375L180.104 26H178.532H177V33.5Z" fill="#C4CFD3"/>
<path d="M196.47 32.1081C195.154 35.5153 193.838 38.8809 193.558 39.6288L193 41L194.675 40.8754C196.191 40.7507 196.39 40.6261 196.829 39.2964C197.308 37.8421 197.348 37.8421 199.781 37.7175C202.573 37.5928 203.251 37.9252 203.61 39.7535C203.849 40.8338 204.048 40.9585 205.444 40.9585C206.442 40.9585 207 40.7507 207 40.4183C206.96 40.169 205.764 36.8449 204.248 33.0637L201.536 26.2078L200.179 26.0831L198.823 26L196.47 32.1081ZM201.177 32.5236C201.536 33.6039 201.815 34.6011 201.815 34.8089C201.815 34.9751 201.017 35.1413 200.06 35.1413H198.265L199.103 32.6482C199.541 31.277 200.06 30.2383 200.219 30.3629C200.379 30.4876 200.818 31.4432 201.177 32.5236Z" fill="#C4CFD3"/>
<path d="M312.172 26.0442C311.966 26.1249 311.221 26.2861 310.6 26.4474C307.579 27.0925 306.338 30.9229 308.448 32.8583C309.028 33.3825 310.724 34.1486 312.172 34.5114C316.186 35.6001 317.221 37.3338 314.366 38.3015C312.834 38.8257 310.517 38.0193 310.103 36.7694C309.897 36.1242 309.483 35.9226 308.407 35.9226C307.166 35.9226 307 36.0436 307 36.971C307 39.2289 310.972 41.4465 314.076 40.9223C317.676 40.3175 319 39.1079 319 36.3258C319 34.1082 317.759 33.0599 313.828 31.9309C311.097 31.1649 310.724 30.9633 310.724 30.1165C310.724 28.3425 313.91 28.0602 315.359 29.673C316.352 30.802 318.048 31.0036 318.421 30.0762C318.71 29.3505 317.676 27.657 316.393 26.8909C315.483 26.3668 312.959 25.8426 312.172 26.0442Z" fill="#C4CFD3"/>
<path d="M239.328 26.9687C235.029 29.5996 234.875 36.6987 238.983 39.7889C240.864 41.1669 244.165 41.4175 246.046 40.29C247.965 39.1625 249.539 36.8239 249.77 34.8195L250 33.1074H246.66C243.397 33.1074 243.359 33.1074 243.359 34.1513C243.359 35.07 243.512 35.1953 244.856 35.1953C246.814 35.1953 247.121 35.7382 245.892 37.0745C244.472 38.6196 241.9 38.5361 240.211 36.9075C239.098 35.8217 238.944 35.4459 238.944 33.5667C238.944 31.7711 239.098 31.27 240.173 30.1424C241.785 28.3886 244.05 28.305 245.624 29.9337C246.353 30.6853 247.083 31.0194 248.081 31.0194C248.848 31.0194 249.501 30.8524 249.501 30.6018C249.501 29.9337 247.159 27.2611 246.008 26.5929C244.357 25.6742 241.132 25.8412 239.328 26.9687Z" fill="#C4CFD3"/>
<path d="M255 33.5V41H259.478H263.955V39.5417V38.0834H261H258.09L258.224 36.5L258.358 34.9584L261.179 34.8334L264 34.7084L263.866 33.375C263.731 32.0417 263.731 32.0417 260.955 31.9167L258.134 31.7917V30.375V28.9167H261.045H263.955V27.4584V26H259.478H255V33.5Z" fill="#C4CFD3"/>
<path d="M269 33.5V41H270.475H271.95V39.0111C271.95 35.779 272.456 35.6547 274.31 38.4724C275.954 40.9586 275.954 41 277.977 41H280L277.851 38.2238L275.743 35.489L277.008 34.7017C279.452 33.2514 279.789 29.4393 277.682 27.3674C276.67 26.4144 276.207 26.2901 272.793 26.1658L269 26V33.5ZM275.406 29.2735C277.05 30.7238 275.701 33.3343 273.341 33.0442C272.245 32.9199 272.161 32.7956 272.034 30.7238L271.95 28.5691H273.257C274.015 28.5691 274.985 28.8591 275.406 29.2735Z" fill="#C4CFD3"/>
<path d="M287.464 26.2909C287.066 26.9973 282 40.2521 282 40.5845C282 40.7923 282.638 40.9585 283.436 40.9585C284.712 40.9585 284.912 40.7923 285.47 39.2964L286.108 37.5928L288.9 37.7175L291.692 37.8421L292.171 39.2964C292.61 40.6261 292.809 40.7507 294.325 40.8754L296 41L295.442 39.6288C295.162 38.8809 293.846 35.5153 292.53 32.1496C290.177 26.0416 290.177 26 288.9 26C288.222 26 287.544 26.1247 287.464 26.2909ZM289.897 32.6482L290.735 35.1413H288.98C287.983 35.1413 287.185 35.0167 287.185 34.8504C287.185 34.1856 288.541 30.1552 288.781 30.1552C288.9 30.1552 289.419 31.277 289.897 32.6482Z" fill="#C4CFD3"/>
</svg>
